<svg width="44" height="44" viewBox="0 0 44 44" fill="none" xmlns="http://www.w3.org/2000/svg">
<rect x="0.5" y="0.5" width="43" height="43" rx="11.5" fill="white"/>
<rect x="0.5" y="0.5" width="43" height="43" rx="11.5" stroke="#B3B3B3"/>
<g clip-path="url(#clip0_8_9459)">
<mask id="mask0_8_9459" style="mask-type:luminance" maskUnits="userSpaceOnUse" x="10" y="10" width="24" height="24">
<path d="M34 10H10V34H34V10Z" fill="white"/>
</mask>
<g mask="url(#mask0_8_9459)">
<path d="M27.9104 12.5525C27.9104 12.3025 27.7404 12.0845 27.4981 12.0239L27.1998 11.9492C26.9009 11.8744 26.628 11.7197 26.4102 11.5017C26.1923 11.2836 26.0378 11.0104 25.9631 10.7113L25.8885 10.413C25.8279 10.1703 25.6101 10 25.3602 10C25.1105 10 24.8928 10.17 24.832 10.4124L24.7569 10.7113C24.6823 11.0103 24.5279 11.2835 24.3102 11.5015C24.0925 11.7195 23.8198 11.8743 23.5211 11.9492L23.2228 12.0239C22.9805 12.0845 22.8105 12.3025 22.8105 12.5525C22.8105 12.8025 22.9805 13.0204 23.2228 13.0811L23.5211 13.1557C23.8199 13.2305 24.0929 13.3852 24.3107 13.6033C24.5285 13.8213 24.6831 14.0945 24.7578 14.3937L24.8324 14.6922C24.8929 14.9348 25.1107 15.1049 25.3604 15.1049C25.6102 15.1049 25.8279 14.9348 25.8885 14.6922L25.9631 14.3937C26.0378 14.0945 26.1923 13.8213 26.4102 13.6033C26.628 13.3852 26.9009 13.2305 27.1998 13.1557L27.4981 13.0811C27.7404 13.0204 27.9104 12.8025 27.9104 12.5525Z" fill="#1A1A1A"/>
<path d="M34 17.5C34 17.1572 33.7667 16.8583 33.4341 16.7752L33.0247 16.6728C32.6145 16.5703 32.2399 16.3581 31.9409 16.0591C31.6419 15.7602 31.4298 15.3855 31.3272 14.9753L31.2248 14.5659C31.1417 14.2333 30.8428 14 30.5 14C30.1572 14 29.8584 14.2333 29.7752 14.5659L29.6728 14.9753C29.5703 15.3855 29.3581 15.7602 29.0591 16.0591C28.7602 16.3581 28.3855 16.5703 27.9753 16.6728L27.5659 16.7752C27.2333 16.8583 27 17.1572 27 17.5C27 17.8428 27.2333 18.1417 27.5659 18.2248L27.9753 18.3272C28.3855 18.4298 28.7602 18.6419 29.0591 18.9409C29.3581 19.2399 29.5703 19.6145 29.6728 20.0247L29.7752 20.4341C29.8584 20.7667 30.1572 21 30.5 21C30.8428 21 31.1417 20.7667 31.2248 20.4341L31.3272 20.0247C31.4298 19.6145 31.6419 19.2399 31.9409 18.9409C32.2399 18.6419 32.6145 18.4298 33.0247 18.3272L33.4341 18.2248C33.7667 18.1417 34 17.8428 34 17.5Z" fill="#1A1A1A"/>
<path d="M19.7135 14.5138C19.9838 13.8287 21.017 13.8287 21.2873 14.5138L23.2371 19.6693C23.322 19.8847 23.5031 20.6172 23.7328 20.6969L28.4521 22.7758C29.1826 23.0293 29.1826 23.9982 28.4521 24.2517L23.7328 25.8346C23.5031 25.9143 23.322 26.6468 23.2371 26.8622L21.2873 31.4862C21.017 32.1713 19.9838 32.1713 19.7135 31.4862L17.7637 26.8622C17.6788 26.6468 17.4977 25.9143 17.268 25.8346L12.5479 24.2517C11.8174 23.9982 11.8174 23.0293 12.5479 22.7758L17.268 20.6969C17.4977 20.6172 17.6788 19.8847 17.7637 19.6693L19.7135 14.5138Z" fill="#1A1A1A"/>
</g>
</g>
<defs>
<clipPath id="clip0_8_9459">
<rect width="24" height="24" fill="white" transform="translate(10 10)"/>
</clipPath>
</defs>
</svg>
